<svg viewBox="0 0 96 96" xmlns="http://www.w3.org/2000/svg" xmlns:xlink="http://www.w3.org/1999/xlink" id="Icons_CircleWithLeftArrow" overflow="hidden"><style>
.MsftOfcResponsive_Fill_196b24 {
 fill:#196B24; 
}
</style>
<path d="M28 45 60.76 45 51.88 36.12C50.7505 34.9078 50.8175 33.0095 52.0297 31.88 53.1818 30.8064 54.9679 30.8064 56.12 31.88L70.12 45.88C71.2898 47.0513 71.2898 48.9487 70.12 50.12L56.12 64.12C54.9487 65.2898 53.0513 65.2898 51.88 64.12 50.7102 62.9487 50.7102 61.0513 51.88 59.88L60.76 51 28 51C26.3431 51 25 49.6569 25 48 25 46.3431 26.3431 45 28 45Z" class="MsftOfcResponsive_Fill_196b24" fill="#4472C4"/><path d="M48 10C27.0132 10 10 27.0132 10 48 10 68.9868 27.0132 86 48 86 68.9868 86 86 68.9868 86 48 86 27.0132 68.9868 10 48 10ZM48 80C30.3269 80 16 65.6731 16 48 16 30.3269 30.3269 16 48 16 65.6731 16 80 30.3269 80 48 80 65.6731 65.6731 80 48 80Z" class="MsftOfcResponsive_Fill_196b24" fill="#4472C4"/></svg>